<mxfile host="app.diagrams.net" agent="Mozilla/5.0 (Windows NT 10.0; Win64; x64) AppleWebKit/537.36 (KHTML, like Gecko) Chrome/136.0.0.0 Safari/537.36 Edg/136.0.0.0" version="27.1.1">
  <diagram id="JBcaNy61DmudLP-Crxu7" name="Page-1">
    <mxGraphModel dx="2480" dy="635" grid="1" gridSize="10" guides="1" tooltips="1" connect="1" arrows="1" fold="1" page="1" pageScale="1" pageWidth="827" pageHeight="1169" math="0" shadow="0">
      <root>
        <mxCell id="0" />
        <mxCell id="1" parent="0" />
        <mxCell id="V27nlVE_CIRibrvkx6qY-1" value="Start" style="ellipse;whiteSpace=wrap;html=1;" vertex="1" parent="1">
          <mxGeometry x="330" y="20" width="80" height="40" as="geometry" />
        </mxCell>
        <mxCell id="V27nlVE_CIRibrvkx6qY-2" value="Input&lt;div&gt;Original URL&lt;/div&gt;" style="shape=parallelogram;perimeter=parallelogramPerimeter;whiteSpace=wrap;html=1;fixedSize=1;" vertex="1" parent="1">
          <mxGeometry x="320" y="90" width="100" height="40" as="geometry" />
        </mxCell>
        <mxCell id="V27nlVE_CIRibrvkx6qY-3" value="URL&lt;div&gt;already exist&lt;/div&gt;" style="rhombus;whiteSpace=wrap;html=1;" vertex="1" parent="1">
          <mxGeometry x="320" y="150" width="100" height="90" as="geometry" />
        </mxCell>
        <mxCell id="V27nlVE_CIRibrvkx6qY-4" value="Generating Unique ID" style="rounded=1;whiteSpace=wrap;html=1;" vertex="1" parent="1">
          <mxGeometry x="90" y="270" width="100" height="50" as="geometry" />
        </mxCell>
        <mxCell id="V27nlVE_CIRibrvkx6qY-5" value="Saved&lt;br&gt;Successfully" style="rhombus;whiteSpace=wrap;html=1;" vertex="1" parent="1">
          <mxGeometry x="100" y="350" width="90" height="90" as="geometry" />
        </mxCell>
        <mxCell id="V27nlVE_CIRibrvkx6qY-6" value="Return Error" style="shape=parallelogram;perimeter=parallelogramPerimeter;whiteSpace=wrap;html=1;fixedSize=1;" vertex="1" parent="1">
          <mxGeometry x="-40" y="480" width="100" height="40" as="geometry" />
        </mxCell>
        <mxCell id="V27nlVE_CIRibrvkx6qY-7" value="Return 201" style="shape=parallelogram;perimeter=parallelogramPerimeter;whiteSpace=wrap;html=1;fixedSize=1;" vertex="1" parent="1">
          <mxGeometry x="220" y="480" width="100" height="40" as="geometry" />
        </mxCell>
        <mxCell id="V27nlVE_CIRibrvkx6qY-8" value="Returned&amp;nbsp;&lt;div&gt;Existing URL&lt;/div&gt;" style="shape=parallelogram;perimeter=parallelogramPerimeter;whiteSpace=wrap;html=1;fixedSize=1;" vertex="1" parent="1">
          <mxGeometry x="510" y="370" width="130" height="60" as="geometry" />
        </mxCell>
        <mxCell id="V27nlVE_CIRibrvkx6qY-9" value="" style="endArrow=classic;html=1;rounded=0;exitX=0.5;exitY=1;exitDx=0;exitDy=0;" edge="1" parent="1" source="V27nlVE_CIRibrvkx6qY-1">
          <mxGeometry width="50" height="50" relative="1" as="geometry">
            <mxPoint x="370" y="70" as="sourcePoint" />
            <mxPoint x="369.38" y="90" as="targetPoint" />
          </mxGeometry>
        </mxCell>
        <mxCell id="V27nlVE_CIRibrvkx6qY-10" value="" style="endArrow=none;html=1;rounded=0;" edge="1" parent="1">
          <mxGeometry width="50" height="50" relative="1" as="geometry">
            <mxPoint x="140" y="194.37" as="sourcePoint" />
            <mxPoint x="320" y="194.37" as="targetPoint" />
          </mxGeometry>
        </mxCell>
        <mxCell id="V27nlVE_CIRibrvkx6qY-11" value="" style="endArrow=none;html=1;rounded=0;" edge="1" parent="1">
          <mxGeometry width="50" height="50" relative="1" as="geometry">
            <mxPoint x="420" y="194.37" as="sourcePoint" />
            <mxPoint x="580" y="194" as="targetPoint" />
          </mxGeometry>
        </mxCell>
        <mxCell id="V27nlVE_CIRibrvkx6qY-13" value="" style="endArrow=classic;html=1;rounded=0;exitX=0.5;exitY=1;exitDx=0;exitDy=0;" edge="1" parent="1">
          <mxGeometry width="50" height="50" relative="1" as="geometry">
            <mxPoint x="370" y="130" as="sourcePoint" />
            <mxPoint x="369.38" y="160" as="targetPoint" />
          </mxGeometry>
        </mxCell>
        <mxCell id="V27nlVE_CIRibrvkx6qY-14" value="" style="endArrow=classic;html=1;rounded=0;exitX=0.5;exitY=1;exitDx=0;exitDy=0;entryX=0.571;entryY=0.012;entryDx=0;entryDy=0;entryPerimeter=0;" edge="1" parent="1" target="V27nlVE_CIRibrvkx6qY-8">
          <mxGeometry width="50" height="50" relative="1" as="geometry">
            <mxPoint x="580.62" y="190" as="sourcePoint" />
            <mxPoint x="580" y="220" as="targetPoint" />
          </mxGeometry>
        </mxCell>
        <mxCell id="V27nlVE_CIRibrvkx6qY-15" value="" style="endArrow=classic;html=1;rounded=0;" edge="1" parent="1">
          <mxGeometry width="50" height="50" relative="1" as="geometry">
            <mxPoint x="139" y="190" as="sourcePoint" />
            <mxPoint x="139.38" y="270" as="targetPoint" />
          </mxGeometry>
        </mxCell>
        <mxCell id="V27nlVE_CIRibrvkx6qY-16" value="" style="endArrow=classic;html=1;rounded=0;exitX=0.5;exitY=1;exitDx=0;exitDy=0;" edge="1" parent="1">
          <mxGeometry width="50" height="50" relative="1" as="geometry">
            <mxPoint x="145" y="320" as="sourcePoint" />
            <mxPoint x="144.38" y="350" as="targetPoint" />
          </mxGeometry>
        </mxCell>
        <mxCell id="V27nlVE_CIRibrvkx6qY-17" value="" style="endArrow=none;html=1;rounded=0;" edge="1" parent="1">
          <mxGeometry width="50" height="50" relative="1" as="geometry">
            <mxPoint x="10" y="394" as="sourcePoint" />
            <mxPoint x="100" y="394.38" as="targetPoint" />
          </mxGeometry>
        </mxCell>
        <mxCell id="V27nlVE_CIRibrvkx6qY-20" value="" style="endArrow=classic;html=1;rounded=0;exitX=0.5;exitY=1;exitDx=0;exitDy=0;entryX=0.5;entryY=0;entryDx=0;entryDy=0;" edge="1" parent="1" target="V27nlVE_CIRibrvkx6qY-6">
          <mxGeometry width="50" height="50" relative="1" as="geometry">
            <mxPoint x="10" y="390" as="sourcePoint" />
            <mxPoint x="9.379999999999995" y="450" as="targetPoint" />
          </mxGeometry>
        </mxCell>
        <mxCell id="V27nlVE_CIRibrvkx6qY-21" value="" style="endArrow=none;html=1;rounded=0;" edge="1" parent="1">
          <mxGeometry width="50" height="50" relative="1" as="geometry">
            <mxPoint x="190" y="394.38" as="sourcePoint" />
            <mxPoint x="280" y="394.76" as="targetPoint" />
          </mxGeometry>
        </mxCell>
        <mxCell id="V27nlVE_CIRibrvkx6qY-22" value="" style="endArrow=classic;html=1;rounded=0;exitX=0.5;exitY=1;exitDx=0;exitDy=0;entryX=0.5;entryY=0;entryDx=0;entryDy=0;" edge="1" parent="1">
          <mxGeometry width="50" height="50" relative="1" as="geometry">
            <mxPoint x="280" y="390" as="sourcePoint" />
            <mxPoint x="280" y="480" as="targetPoint" />
          </mxGeometry>
        </mxCell>
        <mxCell id="V27nlVE_CIRibrvkx6qY-23" value="&lt;font style=&quot;font-size: 15px;&quot;&gt;End&lt;/font&gt;" style="ellipse;whiteSpace=wrap;html=1;" vertex="1" parent="1">
          <mxGeometry x="314" y="570" width="76" height="50" as="geometry" />
        </mxCell>
        <mxCell id="V27nlVE_CIRibrvkx6qY-24" value="" style="endArrow=none;html=1;rounded=0;" edge="1" parent="1">
          <mxGeometry width="50" height="50" relative="1" as="geometry">
            <mxPoint x="9.379999999999999" y="520" as="sourcePoint" />
            <mxPoint x="9" y="600" as="targetPoint" />
          </mxGeometry>
        </mxCell>
        <mxCell id="V27nlVE_CIRibrvkx6qY-25" value="" style="endArrow=classic;html=1;rounded=0;" edge="1" parent="1">
          <mxGeometry width="50" height="50" relative="1" as="geometry">
            <mxPoint x="10" y="600" as="sourcePoint" />
            <mxPoint x="310" y="600" as="targetPoint" />
          </mxGeometry>
        </mxCell>
        <mxCell id="V27nlVE_CIRibrvkx6qY-26" value="" style="endArrow=classic;html=1;rounded=0;exitX=0.5;exitY=1;exitDx=0;exitDy=0;" edge="1" parent="1">
          <mxGeometry width="50" height="50" relative="1" as="geometry">
            <mxPoint x="280" y="520" as="sourcePoint" />
            <mxPoint x="280" y="600" as="targetPoint" />
          </mxGeometry>
        </mxCell>
        <mxCell id="V27nlVE_CIRibrvkx6qY-27" value="" style="endArrow=none;html=1;rounded=0;" edge="1" parent="1">
          <mxGeometry width="50" height="50" relative="1" as="geometry">
            <mxPoint x="590" y="430" as="sourcePoint" />
            <mxPoint x="590" y="600" as="targetPoint" />
          </mxGeometry>
        </mxCell>
        <mxCell id="V27nlVE_CIRibrvkx6qY-28" value="" style="endArrow=classic;html=1;rounded=0;entryX=1;entryY=0.5;entryDx=0;entryDy=0;" edge="1" parent="1" target="V27nlVE_CIRibrvkx6qY-23">
          <mxGeometry width="50" height="50" relative="1" as="geometry">
            <mxPoint x="590" y="600" as="sourcePoint" />
            <mxPoint x="490" y="570" as="targetPoint" />
          </mxGeometry>
        </mxCell>
        <mxCell id="V27nlVE_CIRibrvkx6qY-29" value="&lt;font style=&quot;font-size: 14px;&quot;&gt;&lt;b style=&quot;&quot;&gt;Fig. Activity Diagram&lt;/b&gt;&lt;/font&gt;" style="text;html=1;align=center;verticalAlign=middle;resizable=0;points=[];autosize=1;strokeColor=none;fillColor=none;" vertex="1" parent="1">
          <mxGeometry x="130" y="618" width="160" height="30" as="geometry" />
        </mxCell>
      </root>
    </mxGraphModel>
  </diagram>
</mxfile>
